<svg width="512" height="512" viewBox="0 0 512 512" fill="none" xmlns="http://www.w3.org/2000/svg">
  <rect width="512" height="512" rx="112" fill="#FFFFFF"/>
  <path d="M151 227C151 148 195 101 258 101C324 101 365 151 363 232C366 326 321 410 257 410C190 410 148 326 151 227Z" fill="#171412"/>
  <circle cx="228" cy="224" r="22" fill="#FFFFFF"/>
  <circle cx="287" cy="224" r="22" fill="#FFFFFF"/>
  <path d="M230 281C245 295 270 295 286 281" stroke="#FFFFFF" stroke-width="13" stroke-linecap="round"/>
  <circle cx="190" cy="263" r="15" fill="#FF988C" fill-opacity="0.62"/>
  <circle cx="326" cy="263" r="15" fill="#FF988C" fill-opacity="0.62"/>
  <path d="M355 140L371 174L407 181L379 205L384 242L355 223L326 242L331 205L303 181L339 174L355 140Z" fill="#F47A4D"/>
  <path d="M128 183C101 177 85 159 80 135" stroke="#F47A4D" stroke-width="12" stroke-linecap="round"/>
  <path d="M384 183C411 177 427 159 432 135" stroke="#F47A4D" stroke-width="12" stroke-linecap="round"/>
</svg>
